#!OML:ASF H:\BreakDance\Project 1\Capture day 1\Session 1\Male.ASF
:FULLY-SPECIFIED
:DEGREES
1
root -3.47107 16.3946 -0.0870355 -105.99 -86.1435 109.551
lowerback -9.46381 0.0560523 -3.67502
upperback 1.41822 0.625138 -2.20891
thorax 6.8014 0.195616 -0.160177
lowerneck -3.33332 -1.67398 -4.90159
upperneck -0.508542 -2.26416 11.4483
head 0.647723 -1.09672 4.63845
rclavicle -8.57259e-016 -1.51076e-014
rhumerus -34.4731 -6.80654 -87.6756
rradius 59.2561
rwrist -8.25321
rhand -19.3442 -33.2297
rfingers 7.12502
rthumb 6.9729 -63.0949
lclavicle -8.57259e-016 -1.51076e-014
lhumerus -33.2515 2.18553 87.3209
lradius 59.429
lwrist -13.7436
lhand -45.7316 -21.6666
lfingers 7.12502
lthumb -18.4875 7.47488
rfemur -16.1214 1.23175 7.86166
rtibia 40.1617
rfoot -27.3232 -19.6722
rtoes -6.78422
lfemur -17.0582 2.40189 -15.397
ltibia 36.7856
lfoot -27.309 15.9653
ltoes -17.3498
2
root -3.47209 16.3943 -0.0872543 -105.583 -86.0733 109.135
lowerback -9.45133 0.0620201 -3.7224
upperback 1.41 0.639032 -2.24444
thorax 6.7853 0.201179 -0.168882
lowerneck -3.45282 -1.63594 -4.94449
upperneck -0.367043 -2.2224 11.5229
head 0.713534 -1.06922 4.67505
rclavicle -3.83903e-015 2.5842e-014
rhumerus -34.4657 -6.86426 -87.6336
rradius 59.2234
rwrist -8.10867
rhand -18.8694 -33.3355
rfingers 7.12502
rthumb 7.43119 -63.185
lclavicle -3.83903e-015 2.5842e-014
lhumerus -33.1958 2.31416 87.2072
lradius 59.7872
lwrist -12.0799
lhand -43.5569 -22.3624
lfingers 7.12502
lthumb -16.3946 6.96475
rfemur -16.0952 1.17999 7.76729
rtibia 40.1484
rfoot -27.3881 -19.5438
rtoes -6.56809
lfemur -17.0353 2.37616 -15.4797
ltibia 36.7834
lfoot -27.3601 15.8361
ltoes -17.0031
3
root -3.47474 16.3935 -0.0871133 -104.941 -85.9586 108.463
lowerback -9.40924 0.0648228 -3.81256
upperback 1.38273 0.651504 -2.29341
thorax 6.73186 0.205105 -0.167871
lowerneck -3.28274 -1.67017 -4.88871
upperneck -0.43739 -2.26702 11.4723
head 0.662163 -1.09796 4.64486
rclavicle -2.29845e-015 -1.27222e-014
rhumerus -34.5082 -6.91328 -87.5829
rradius 59.2118
rwrist -7.98002
rhand -18.3197 -33.4642
rfingers 7.12502
rthumb 7.96177 -63.2943
lclavicle -2.29845e-015 -1.27222e-014
lhumerus -33.1938 2.44761 87.0796
lradius 60.1622
lwrist -10.4269
lhand -41.3255 -22.8492
lfingers 7.12502
lthumb -14.2453 6.64224
rfemur -16.0491 1.07682 7.60935
rtibia 40.1742
rfoot -27.4367 -19.3928
rtoes -6.46417
lfemur -16.9588 2.33319 -15.6202
ltibia 36.7389
lfoot -27.3638 15.729
ltoes -16.4809
4
root -3.47658 16.3928 -0.0875543 -104.32 -85.8649 107.822
lowerback -9.34956 0.0569394 -3.90269
upperback 1.33497 0.646546 -2.32059
thorax 6.64674 0.200872 -0.146424
lowerneck -3.07118 -1.68706 -4.87919
upperneck -0.531599 -2.28564 11.4472
head 0.594367 -1.1152 4.63452
rclavicle 1.13059e-015 -4.01545e-014
rhumerus -34.6129 -6.89107 -87.5552
rradius 59.2406
rwrist -7.98557
rhand -18.2529 -33.5431
rfingers 7.12502
rthumb 8.02627 -63.3707
lclavicle 1.13059e-015 -4.01545e-014
lhumerus -33.226 2.63551 86.9764
lradius 60.5009
lwrist -8.91421
lhand -39.1247 -23.1347
lfingers 7.12502
lthumb -12.1239 6.49405
rfemur -16.0232 1.04853 7.48901
rtibia 40.1836
rfoot -27.4315 -19.3899
rtoes -6.68183
lfemur -16.9348 2.31143 -15.7403
ltibia 36.7217
lfoot -27.2067 15.8786
ltoes -16.9048
5
root -3.47812 16.3922 -0.0876622 -104.033 -85.862 107.553
lowerback -9.34873 0.0477149 -3.89383
upperback 1.30699 0.631808 -2.32001
thorax 6.61696 0.19459 -0.15277
lowerneck -3.14069 -1.64299 -4.80541
upperneck -0.401795 -2.23589 11.3676
head 0.641927 -1.08548 4.59098
rclavicle 1.83876e-015 -2.3059e-014
rhumerus -34.6868 -6.88698 -87.5416
rradius 59.254
rwrist -7.8927
rhand -18.2896 -33.348
rfingers 7.12502
rthumb 7.99079 -63.177
lclavicle 1.83876e-015 -2.3059e-014
lhumerus -33.1964 2.87384 86.8726
lradius 60.83
lwrist -7.33192
lhand -36.8102 -23.4097
lfingers 7.12502
lthumb -9.89156 6.33796
rfemur -16.0343 1.07878 7.49105
rtibia 40.1835
rfoot -27.3716 -19.5114
rtoes -7.11017
lfemur -16.9655 2.30916 -15.7535
ltibia 36.7221
lfoot -27.0747 16.0453
ltoes -17.5584
6
root -3.47621 16.3925 -0.0882624 -104.38 -85.9829 107.959
lowerback -9.3843 0.0537592 -3.75155
upperback 1.30496 0.624843 -2.29565
thorax 6.63604 0.196285 -0.207892
lowerneck -3.15168 -1.59515 -4.68595
upperneck -0.417421 -2.17333 11.2968
head 0.630062 -1.05479 4.54207
rclavicle 2.29845e-015 -4.45278e-014
rhumerus -34.646 -6.89974 -87.5474
rradius 59.2383
rwrist -7.79174
rhand -18.3568 -33.1161
rfingers 7.12502
rthumb 7.92594 -62.9475
lclavicle 2.29845e-015 -4.45278e-014
lhumerus -33.0591 3.09768 86.7598
lradius 61.0994
lwrist -5.83287
lhand -34.5677 -23.4769
lfingers 7.12502
lthumb -7.72754 6.3619
rfemur -16.0876 1.2274 7.65973
rtibia 40.1702
rfoot -27.3611 -19.6593
rtoes -7.07209
lfemur -17.042 2.33174 -15.6099
ltibia 36.7389
lfoot -27.1783 15.9647
ltoes -17.4175
7
root -3.47444 16.3929 -0.0891531 -104.473 -86.055 108.076
lowerback -9.35587 0.0797093 -3.63642
upperback 1.28912 0.644749 -2.30688
thorax 6.60357 0.211248 -0.281196
lowerneck -3.07847 -1.5812 -4.58273
upperneck -0.468692 -2.15626 11.2845
head 0.596896 -1.05008 4.5174
rclavicle 4.50993e-015 -3.02153e-014
rhumerus -34.6441 -6.95344 -87.5542
rradius 59.2668
rwrist -7.82101
rhand -18.469 -33.142
rfingers 7.12502
rthumb 7.81767 -62.9774
lclavicle 4.50993e-015 -3.02153e-014
lhumerus -32.9402 3.41337 86.5162
lradius 61.8363
lwrist -2.71752
lhand -30.0041 -22.7361
lfingers 7.12502
lthumb -3.32138 7.21782
rfemur -16.1016 1.31569 7.74741
rtibia 40.1497
rfoot -27.4818 -19.6334
rtoes -6.53176
lfemur -17.0809 2.3749 -15.524
ltibia 36.7586
lfoot -27.2998 15.855
ltoes -17.1417
8
root -3.47855 16.3929 -0.0880664 -103.627 -85.9519 107.19
lowerback -9.34481 0.0778911 -3.72445
upperback 1.30139 0.653567 -2.34011
thorax 6.60985 0.212315 -0.265584
lowerneck -3.13622 -1.59493 -4.44552
upperneck -0.40035 -2.18125 11.1547
head 0.627376 -1.05964 4.44151
rclavicle 2.48481e-017 1.43125e-014
rhumerus -34.6355 -6.95485 -87.5322
rradius 59.3005
rwrist -7.84575
rhand -18.4736 -33.3403
rfingers 7.12502
rthumb 7.81327 -63.1759
lclavicle 2.48481e-017 1.43125e-014
lhumerus -32.9931 3.38618 86.5407
lradius 61.8642
lwrist -2.7869
lhand -30.1292 -22.6673
lfingers 7.12502
lthumb -3.4422 7.28469
rfemur -16.0169 1.19487 7.5895
rtibia 40.1274
rfoot -27.5469 -19.495
rtoes -6.36435
lfemur -17.0289 2.38247 -15.6597
ltibia 36.7712
lfoot -27.2802 15.8289
ltoes -16.8807
9
root -3.48277 16.3926 -0.0870082 -102.789 -85.8467 106.32
lowerback -9.39666 0.0354332 -3.88679
upperback 1.34494 0.619086 -2.31506
thorax 6.685 0.187384 -0.153659
lowerneck -3.22352 -1.6067 -4.46891
upperneck -0.366373 -2.19539 11.1014
head 0.654807 -1.0632 4.4261
rclavicle -4.44781e-015 -1.47101e-014
rhumerus -34.5199 -6.78759 -87.4791
rradius 59.2438
rwrist -7.88679
rhand -18.4736 -33.4057
rfingers 7.12502
rthumb 7.81323 -63.2413
lclavicle -4.44781e-015 -1.47101e-014
lhumerus -32.9911 3.4803 86.613
lradius 61.8786
lwrist -2.82805
lhand -30.2025 -22.6642
lfingers 7.12502
lthumb -3.51304 7.28662
rfemur -15.943 1.10708 7.44168
rtibia 40.1142
rfoot -27.5609 -19.4352
rtoes -6.44986
lfemur -16.9804 2.34481 -15.7973
ltibia 36.7663
lfoot -27.2483 15.8836
ltoes -16.8754
10
root -3.48608 16.3927 -0.0854699 -102.181 -85.8674 105.732
lowerback -9.47082 0.000297589 -3.87501
upperback 1.3704 0.575127 -2.28604
thorax 6.75533 0.164828 -0.136514
lowerneck -3.29665 -1.60887 -4.46498
upperneck -0.341718 -2.19818 11.068
head 0.675582 -1.06199 4.41274
rclavicle 8.32411e-016 9.14409e-015
rhumerus -34.4997 -6.70705 -87.4855
rradius 59.2527
rwrist -7.9004
rhand -18.548 -33.371
rfingers 7.12502
rthumb 7.74147 -63.2093
lclavicle 8.32411e-016 9.14409e-015
lhumerus -32.9819 3.48145 86.6318
lradius 61.9053
lwrist -2.74748
lhand -30.1825 -22.6266
lfingers 7.12502
lthumb -3.49371 7.32452
rfemur -15.9366 0.938325 7.43389
rtibia 40.1135
rfoot -27.5372 -19.3486
rtoes -6.55384
lfemur -16.9825 2.29837 -15.794
ltibia 36.7499
lfoot -27.3008 15.9488
ltoes -17.0845
11
root -3.48726 16.3939 -0.084873 -101.92 -85.9321 105.506
lowerback -9.49193 -0.00397935 -3.78023
upperback 1.34339 0.558588 -2.28652
thorax 6.73968 0.16093 -0.192454
lowerneck -3.15911 -1.6081 -4.23783
upperneck -0.431977 -2.19484 10.8312
head 0.613671 -1.06664 4.28203
rclavicle -2.12451e-015 -1.55052e-014
rhumerus -34.5999 -6.78698 -87.5385
rradius 59.3225
rwrist -7.7758
rhand -18.6572 -33.4017
rfingers 7.12502
rthumb 7.636 -63.2439
lclavicle -2.12451e-015 -1.55052e-014
lhumerus -33.0524 3.37537 86.5909
lradius 61.9673
lwrist -2.69985
lhand -30.1215 -22.5368
lfingers 7.12502
lthumb -3.43475 7.41529
rfemur -15.9628 0.840454 7.49299
rtibia 40.1164
rfoot -27.5056 -19.3249
rtoes -6.51944
lfemur -17.0135 2.2858 -15.7292
ltibia 36.7391
lfoot -27.3433 15.9174
ltoes -17.0373
